<svg xmlns="http://www.w3.org/2000/svg" preserveAspectRatio="xMidYMid" width="5" height="162" viewBox="0 0 5 162"><defs><style>.cls-1{fill:#fff;fill-rule:evenodd}</style></defs><path d="M2.5 146a2.5 2.5 0 1 1 0-5 2.5 2.5 0 0 1 0 5zm0-15a2.5 2.5 0 1 1 0-5 2.5 2.5 0 0 1 0 5zm0-16a2.5 2.5 0 1 1 0-5 2.5 2.5 0 0 1 0 5zm0-16a2.5 2.5 0 1 1 0-5 2.5 2.5 0 0 1 0 5zm0-15a2.5 2.5 0 1 1 0-5 2.5 2.5 0 0 1 0 5zm0-16a2.5 2.5 0 1 1 0-5 2.5 2.5 0 0 1 0 5zm0-16a2.5 2.5 0 1 1 0-5 2.5 2.5 0 0 1 0 5zm0-16a2.5 2.5 0 1 1 0-5 2.5 2.5 0 0 1 0 5zm0-15a2.5 2.5 0 1 1 0-5 2.5 2.5 0 0 1 0 5zm0-16a2.5 2.5 0 1 1 0-5 2.5 2.5 0 0 1 0 5zm0 152a2.5 2.5 0 1 1 0 5 2.5 2.5 0 0 1 0-5z" class="cls-1"/></svg>